# xmcd
# 
# Track frame offsets:
#     150
#     13888
#     25513
#     36650
#     49475
#     60450
#     71813
#     82025
#     91325
#     104700
#     124363
#     136988
#     148225
#     161950
#     172550
#     186038
#     198050
#     210188
#     223638
#     235463
# 
# Disc length: 3278
# 
# Revision: 3
# Processed by: cddbd v1.5.2PL0 Copyright (c) Steve Scherf et al.
# Submitted via: BonkEnc v1.0.8
# 
DISCID=2a0ccc14
DTITLE=Various Artist - Best Of Country Classics (Volume 3)
DYEAR=1996
DGENRE=Country
TTITLE0=Lefty Frizzell - I Want To Be With You Always
TTITLE1=Ray Price - Crazy Arms
TTITLE2=Marty Robbins - Singin' The Blues
TTITLE3=Carl Smith - Let Old Mother Nature Have Her Way
TTITLE4=Charlie Walker - Pick Me Up On Your Way Down
TTITLE5=Johnny Horton - The Battle Of New Orleans
TTITLE6=Billy Walker - Charlie's Shoes
TTITLE7=Lester Flat and Earl Scruggs - The Ballad Of Jed Clampett
TTITLE8=Carl and Pearl Butler - Don't Let Me Cross Over
TTITLE9=Marty Robbins - El Paso
TTITLE10=Johnny Horton - North To Alaska
TTITLE11=Stonewall Jackson - Waterloo
TTITLE12=Jimmy Dean - Big Bad John
TTITLE13=Statler Brothers - Flowers On The Wall
TTITLE14=Claude King - Wolverton Mountain
TTITLE15=Eddy Arnold - Make The World Go Away
TTITLE16=Tammy Wynette - Stand By Your Man
TTITLE17=David Houston - Almost Persuaded
TTITLE18=Henson Cargill - Skip A Rope
TTITLE19=Johnny Cash - Daddy Sang Bass
EXTD=
EXTT0=Lefty Frizzell
EXTT1=Ray Price
EXTT2=Marty Robbins
EXTT3=Carl Smith
EXTT4=Charlie Walker
EXTT5=Johnny Horton
EXTT6=Billy Walker
EXTT7=Lester Flatt and Earl Scruggs
EXTT8=Carl and Pearl Butler
EXTT9=Marty Robbins
EXTT10=Johnny Horton
EXTT11=Stonewall Jackson
EXTT12=Jimmy Dean
EXTT13=The Statler Brothers
EXTT14=Claude King
EXTT15=Eddy Arnold
EXTT16=Tammy Wynette
EXTT17=David Houston
EXTT18=Henson Cargill
EXTT19=Johnny Cash
PLAYORDER=
